<svg xmlns="http://www.w3.org/2000/svg" viewBox="0 0 1920 1080">
<defs><style>.cls-1{fill:#fff}.cls-1,.cls-2{stroke:#000;stroke-miterlimit:10;stroke-width:4px}</style></defs>
<g id="ghost1"><path class="cls-1" d="M395,385c0-6.54,1-63.7,48-98,38.17-27.88,93-30.68,128.5-5.5,27.07,19.2,34.56,48.78,44,86,5.8,22.88,6.11,61.73,6.5,138.5.6,118.45-3.77,77.46-2,112,1.62,31.73,4.74,55.19-4.5,59.28S589.73,664.07,578,650a82.35,82.35,0,0,0-30-19c-6.47-2.32-23.66-8.24-43-3-14,3.79-13.09,9.08-24.5,12.5-24.23,7.26-38.94-13.43-63.5-12.5-11.79.45-28.62,6-48.5,30.5,0,0-25,15-25-4,0-25.89,27.73-114.5,27.73-114.5,5.53-17.54,8.28-34,13.77-67A849.67,849.67,0,0,0,395,385Z"/>
<circle class="cls-2" cx="483" cy="366" r="15"/><circle class="cls-2" cx="549" cy="366" r="15"/></g>
<g id="ghost2"><path class="cls-1" d="M838,153a89,89,0,0,1,21.22-17l1.4-.8a115.94,115.94,0,0,1,77-12c9.46,1.94,32.16,6.61,50,25.23,18.32,19.08,23.32,44.19,25.5,55.15,1.12,5.66,2.68,15.62,6.61,30.84,3.78,14.66,5.73,22,8.5,24.3,11.1,9.12,28.33-5.77,66.35-8,16.88-1,27.75-1.49,37.69,5.46,14.21,9.92,21.9,31.78,15.32,47.32-7.74,18.27-33.66,24.18-55.16,29.08-25.92,5.91-40.39,2.48-52.87,14.95-7.26,7.26-9.64,15.68-11.19,21.5-10.79,40.65-14.73,81.37-16.2,92.53-5.84,44.4-33.7,84.54-62,106.79-29.23,23-103,43.69-103,43.69q6.45-20.1,12.91-40.19c1.94-9.41,3.48-23.6-.94-39.26-4.77-16.87-13.81-26-21.72-37.38-9.28-13.33-20.32-34.44-25.19-67A251.21,251.21,0,0,1,796,361.51c-2-20-.67-32.58-10.38-43.92-8.52-9.95-18.37-10.62-38.72-17.76A277.49,277.49,0,0,1,694,274.59c-2.22-1.79-16.5-13.72-17-33.65-.38-15.34,7.53-30.57,20.77-38.32,13.79-8.06,28.34-5.09,34.94-3.74a47.41,47.41,0,0,1,8,2.35c15.61,6.23,25.19,14.61,35.41,22.89C795.37,239.69,807.42,249.46,814,246c6.74-3.54,4-17.18,6-37A146.24,146.24,0,0,1,838,153Z"/>
<circle class="cls-2" cx="945" cy="215" r="15"/><circle class="cls-2" cx="885" cy="215" r="15"/></g></svg>