<svg id="Layer_1" data-name="Layer 1" xmlns="http://www.w3.org/2000/svg" viewBox="0 0 1920 1080">
  <defs>
    <style>
      .cls-1 {
        fill: none;
      }
    </style>
  </defs>
  <path class="cls-1" d="M1171.21,629.65c-51.83,0-100-33.78-143-63.86-8.79-6.16-17.09-12-25.34-17.47-30.85-20.54-58.68-35.23-87.57-46.22-36.71-14-74.94-21.86-116.87-24.11-74.5-4-115,12.37-171.16,35-12.21,4.93-24.82,10-38.75,15.32-24.33,9.24-44.83,19.46-62.91,28.48-41.87,20.88-74.94,37.37-126,30.07-72-10.28-163.11-85-167-88.19l12.74-15.42c.9.74,90.67,74.33,157,83.81,44.94,6.42,74-8.09,114.3-28.17,18.5-9.23,39.48-19.69,64.74-29.28,13.73-5.21,26.25-10.27,38.36-15.16,56.31-22.75,100.78-40.72,179.73-36.48,100.11,5.39,167.19,42.2,214.44,73.67,8.45,5.62,16.85,11.5,25.73,17.73,45.7,32,93,65.12,142.19,59.65,44.29-4.92,159.39-43.18,221.22-63.73,33-11,44-14.57,47.91-15.2l3.19,19.74c-3.24.62-23.42,7.33-44.79,14.43-66.92,22.25-178.93,59.48-225.33,64.64A116.53,116.53,0,0,1,1171.21,629.65Z"/>
  <path class="cls-1" d="M239,491s92,76,162,86,105-28,184-58,121-56,214-51,156.88,37,209.44,72S1120,626,1183,619s257.26-77,269.63-79"/>
</svg>
